<svg width="160" height="160" viewBox="0 0 160 160" fill="none" xmlns="http://www.w3.org/2000/svg">
<path fill-rule="evenodd" clip-rule="evenodd" d="M72.75 1.08001C71.514 1.80001 71 3.35902 71 6.39102V10.682L65.25 11.952C57.698 13.621 48.888 17.222 42.803 21.126L37.896 24.275L35.143 21.637C33.629 20.187 31.498 19 30.408 19C27.887 19 19 27.943 19 30.48C19 31.531 20.175 33.617 21.611 35.115L24.221 37.84L20.643 43.67C16.592 50.27 12.576 60.442 11.529 66.75C10.825 70.995 10.819 71 6.447 71C1.026 71 0 72.572 0 80.878C0 85.957 0.344999 87.128 2.227 88.446C3.653 89.445 5.548 89.8 7.502 89.434L10.55 88.862L12.254 96.119C13.854 102.938 18.676 114.116 22.642 120.199C24.372 122.853 24.356 122.941 21.701 125.401C17.905 128.919 18.297 131.561 23.368 136.632C28.456 141.719 31.212 142.129 35.124 138.381L37.857 135.762L40.804 137.86C46.237 141.729 57.924 146.768 64.492 148.073L71 149.367V153.483C71 155.748 71.54 158.14 72.2 158.8C72.894 159.494 76.217 160 80.078 160C87.775 160 89.5 158.75 89.5 153.17V149.65L97 147.812C104.899 145.876 112.285 142.653 118.521 138.421L122.265 135.88L124.937 138.44C128.836 142.175 131.863 141.734 136.792 136.712C141.728 131.682 142.117 128.775 138.376 124.87L135.752 122.131L137.928 119.364C141.21 115.192 145.973 104.362 147.984 96.5C149.768 89.528 149.789 89.5 153.233 89.5C158.747 89.5 160 87.756 160 80.078C160 76.217 159.494 72.894 158.8 72.2C158.14 71.54 155.748 71 153.483 71H149.367L148.073 64.492C146.768 57.924 141.729 46.237 137.86 40.804L135.762 37.857L138.381 35.124C142.129 31.212 141.719 28.456 136.632 23.368C131.566 18.303 129.069 17.935 125.545 21.735C123.034 24.443 122.983 24.452 120.255 22.668C114.511 18.914 102.426 13.734 95.764 12.17C88.896 10.558 88.846 10.522 89.428 7.60901C89.796 5.76801 89.445 3.80102 88.485 2.33602C87.147 0.295016 86.167 0.00401559 80.727 0.0300156C77.302 0.0470156 73.713 0.519015 72.75 1.08001ZM62 33.592C58.425 34.956 54.445 36.878 53.156 37.862L50.811 39.651L57.125 46.825C60.597 50.771 63.96 54 64.597 54C65.234 54 67.386 53.319 69.378 52.487C72.994 50.976 73 50.963 72.989 44.737C72.973 35.45 72.037 30.99 70.119 31.055C69.229 31.086 65.575 32.227 62 33.592ZM87.651 37.064C86.328 49.719 86.46 50.249 91.519 52.593L96.036 54.685L102.625 47.324C107.779 41.565 108.969 39.668 108.092 38.611C106.589 36.799 96.384 32.313 91.901 31.493L88.302 30.834L87.651 37.064ZM37.178 54.244C34.513 58.599 30.37 70.704 31.245 71.579C31.629 71.962 36.118 72.493 41.221 72.758L50.5 73.24L52.672 68.754L54.844 64.268L48.172 58.324C39.268 50.393 39.485 50.473 37.178 54.244ZM114.402 56.109C104.907 64.318 105.531 63.204 107.517 68.405L109.272 73L116.886 72.986C128.036 72.966 129.336 72.458 128.674 68.379C128.028 64.395 123.24 53.444 121.522 52.018C120.645 51.29 118.65 52.436 114.402 56.109ZM74.888 71.5C69.14 74.623 68.593 84.15 73.942 87.959C80.651 92.736 90 88.399 90 80.511C90 75.824 88.653 73.389 85.02 71.51C81.419 69.648 78.301 69.645 74.888 71.5ZM35.15 87.737L30.801 88.125L31.485 91.77C32.317 96.206 37.317 107.46 38.887 108.43C40.219 109.253 54 97.361 54 95.388C54 94.662 53.242 92.478 52.315 90.534C50.665 87.074 50.513 87.004 45.065 87.175C42.004 87.271 37.543 87.524 35.15 87.737ZM107.509 91.615L105.747 96.231L111.623 101.619C120.39 109.658 120.534 109.703 123.31 105.271C125.837 101.237 129 92.727 129 89.964C129 88.644 127.687 88.148 122.853 87.642C119.473 87.289 115.034 87 112.989 87C109.491 87 109.168 87.272 107.509 91.615ZM57.197 113.172C52.815 118.275 51.327 120.689 52.034 121.541C53.447 123.243 64.417 128.031 68.376 128.674C71.587 129.195 71.726 129.079 72.341 125.357C72.691 123.236 72.983 118.749 72.989 115.386L73 109.272L68.717 107.636C66.361 106.736 64.19 106 63.894 106C63.597 106 60.583 109.227 57.197 113.172ZM90.75 107.733C86.551 109.456 86.347 110.459 87.654 122.959L88.307 129.212L91.706 128.66C95.7 128.012 109 122.059 109 120.919C109 119.603 96.633 105.993 95.531 106.097C94.964 106.151 92.813 106.887 90.75 107.733Z" fill="#1E379E"/>
</svg>
